<svg width="300" height="300" viewBox="0 0 300 300" fill="none" xmlns="http://www.w3.org/2000/svg">
  <rect width="300" height="300" rx="46" fill="#141414"/>
  <rect x="0.75" y="0.75" width="298.5" height="298.5" rx="45.25" stroke="#ECE4D8" stroke-opacity="0.08" stroke-width="1.5"/>
  <mask id="path-1-inside-1" fill="#ECE4D8">
    <path d="M95 217.448C95 218.001 95.4477 218.448 96 218.448H137.981V232.448H96C87.7157 232.448 81 225.733 81 217.448V164.938H95V217.448ZM220 217.448C220 225.603 213.492 232.238 205.387 232.443L205 232.448H162.155V218.448H205C205.552 218.448 206 218.001 206 217.448V191.562H220V217.448ZM137.981 81H96C95.4477 81 95 81.4477 95 82V138.314H81V82C81 73.7157 87.7157 67 96 67H137.981V81ZM205.387 67.0049C213.492 67.21 220 73.845 220 82V108.838H206V82C206 81.4477 205.552 81 205 81H162.155V67H205L205.387 67.0049Z"/>
  </mask>
  <path d="M95 217.448C95 218.001 95.4477 218.448 96 218.448H137.981V232.448H96C87.7157 232.448 81 225.733 81 217.448V164.938H95V217.448ZM220 217.448C220 225.603 213.492 232.238 205.387 232.443L205 232.448H162.155V218.448H205C205.552 218.448 206 218.001 206 217.448V191.562H220V217.448ZM137.981 81H96C95.4477 81 95 81.4477 95 82V138.314H81V82C81 73.7157 87.7157 67 96 67H137.981V81ZM205.387 67.0049C213.492 67.21 220 73.845 220 82V108.838H206V82C206 81.4477 205.552 81 205 81H162.155V67H205L205.387 67.0049Z" fill="#ECE4D8"/>
  <path d="M96 218.448L96 219.448H96V218.448ZM137.981 218.448H138.981V217.448H137.981V218.448ZM137.981 232.448V233.448H138.981V232.448H137.981ZM96 232.448V233.448V233.448V232.448ZM81 164.938V163.938H80V164.938H81ZM95 164.938H96V163.938H95V164.938ZM205.387 232.443L205.399 233.443L205.412 233.443L205.387 232.443ZM205 232.448V233.448L205.013 233.448L205 232.448ZM162.155 232.448H161.155V233.448H162.155V232.448ZM162.155 218.448V217.448H161.155V218.448H162.155ZM206 191.562V190.562H205V191.562H206ZM220 191.562H221V190.562H220V191.562ZM137.981 81V82H138.981V81H137.981ZM96 81V80H96L96 81ZM95 138.314V139.314H96V138.314H95ZM81 138.314H80V139.314H81V138.314ZM96 67V66V66V67ZM137.981 67H138.981V66H137.981V67ZM205.387 67.0049L205.412 66.0051L205.399 66.005L205.387 67.0049ZM220 108.838V109.838H221V108.838H220ZM206 108.838H205V109.838H206V108.838ZM162.155 81H161.155V82H162.155V81ZM162.155 67V66H161.155V67H162.155ZM205 67L205.013 66H205V67ZM95 217.448H94C94 218.553 94.8954 219.448 96 219.448L96 218.448L96 217.448H96H95ZM96 218.448V219.448H137.981V218.448V217.448H96V218.448ZM137.981 218.448H136.981V232.448H137.981H138.981V218.448H137.981ZM137.981 232.448V231.448H96V232.448V233.448H137.981V232.448ZM96 232.448V231.448C88.268 231.448 82 225.18 82 217.448H81H80C80 226.285 87.1634 233.448 96 233.448V232.448ZM81 217.448H82V164.938H81H80V217.448H81ZM81 164.938V165.938H95V164.938V163.938H81V164.938ZM95 164.938H94V217.448H95H96V164.938H95ZM220 217.448H219C219 225.059 212.926 231.252 205.361 231.444L205.387 232.443L205.412 233.443C214.058 233.224 221 226.147 221 217.448H220ZM205.387 232.443L205.374 231.443L204.987 231.448L205 232.448L205.013 233.448L205.399 233.443L205.387 232.443ZM205 232.448V231.448H162.155V232.448V233.448H205V232.448ZM162.155 232.448H163.155V218.448H162.155H161.155V232.448H162.155ZM162.155 218.448V219.448H205V218.448V217.448H162.155V218.448ZM205 218.448V219.448C206.105 219.448 207 218.553 207 217.448H206H205V218.448ZM206 217.448H207V191.562H206H205V217.448H206ZM206 191.562V192.562H220V191.562V190.562H206V191.562ZM220 191.562H219V217.448H220H221V191.562H220ZM137.981 81V80H96V81V82H137.981V81ZM96 81L96 80C94.8954 80 94 80.8955 94 82H95H96H96L96 81ZM95 82H94V138.314H95H96V82H95ZM95 138.314V137.314H81V138.314V139.314H95V138.314ZM81 138.314H82V82H81H80V138.314H81ZM81 82H82C82 74.268 88.268 68 96 68V67V66C87.1634 66 80 73.1634 80 82H81ZM96 67V68H137.981V67V66H96V67ZM137.981 67H136.981V81H137.981H138.981V67H137.981ZM205.387 67.0049L205.361 68.0046C212.926 68.196 219 74.3888 219 82H220H221C221 73.3012 214.058 66.224 205.412 66.0052L205.387 67.0049ZM220 82H219V108.838H220H221V82H220ZM220 108.838V107.838H206V108.838V109.838H220V108.838ZM206 108.838H207V82H206H205V108.838H206ZM206 82H207C207 80.8954 206.105 80 205 80V81V82H206ZM205 81V80H162.155V81V82H205V81ZM162.155 81H163.155V67H162.155H161.155V81H162.155ZM162.155 67V68H205V67V66H162.155V67ZM205 67L204.987 67.9999L205.374 68.0048L205.387 67.0049L205.399 66.005L205.013 66.0001L205 67Z" fill="#ECE4D8" fill-opacity="0.10" mask="url(#path-1-inside-1)"/>
</svg>
