<svg width="300" height="300" viewBox="0 0 300 300" fill="none" xmlns="http://www.w3.org/2000/svg">
  <rect width="300" height="300" rx="46" fill="#141414"/>
  <rect x="0.75" y="0.75" width="298.5" height="298.5" rx="45.25" stroke="#ECE4D8" stroke-opacity="0.08" stroke-width="1.5"/>
  <path d="M95 217.448C95 218.001 95.4477 218.448 96 218.448H137.981V232.448H96C87.7157 232.448 81 225.733 81 217.448V164.938H95V217.448ZM220 217.448C220 225.603 213.492 232.238 205.387 232.443L205 232.448H162.155V218.448H205C205.552 218.448 206 218.001 206 217.448V191.562H220V217.448ZM137.981 81H96C95.4477 81 95 81.4477 95 82V138.314H81V82C81 73.7157 87.7157 67 96 67H137.981V81ZM205.387 67.0049C213.492 67.21 220 73.845 220 82V108.838H206V82C206 81.4477 205.552 81 205 81H162.155V67H205L205.387 67.0049Z" fill="#ECE4D8"/>
</svg>
